<svg width="76" height="76" viewBox="0 0 76 76" fill="none" xmlns="http://www.w3.org/2000/svg">
<path d="M44.8704 10.435C50.6335 4.67189 59.9773 4.6719 65.7404 10.435V10.435C71.5035 16.198 71.5035 25.5418 65.7404 31.3049L48.5227 48.5226L27.6527 27.6527L44.8704 10.435Z" fill="#5978FF"/>
<path fill-rule="evenodd" clip-rule="evenodd" d="M65.7574 31.2356C71.0077 25.9154 71.4512 17.5099 66.7898 11.6668L65.9665 10.6348C69.3564 21.5992 67.8276 22.3316 45.4665 45.4665L48.6106 48.6105L65.7574 31.2356Z" fill="#4A6BFB"/>
<path d="M27.6526 27.6527L48.5226 48.5226L31.3049 65.7403C25.5418 71.5034 16.198 71.5034 10.4349 65.7403V65.7403C4.67186 59.9773 4.67186 50.6335 10.4349 44.8704L27.6526 27.6527Z" fill="#FFF872"/>
<path fill-rule="evenodd" clip-rule="evenodd" d="M48.5226 48.5226L45.4663 45.4663L28.7579 61.2993C23.8724 65.9288 16.8979 67.6193 10.4349 65.7403C16.198 71.5034 25.5418 71.5034 31.3049 65.7404L48.5226 48.5226Z" fill="#F1E943"/>
</svg>
