<svg width="20" height="20" viewBox="0 0 20 20" fill="none" xmlns="http://www.w3.org/2000/svg">
<path d="M14.0865 16.25C13.8731 16.25 13.6942 16.1778 13.5498 16.0333C13.4055 15.889 13.3333 15.7101 13.3333 15.4967V12.0833C13.3333 11.87 13.4055 11.6911 13.5498 11.5467C13.6942 11.4024 13.8731 11.3302 14.0865 11.3302H15.4967C15.7101 11.3302 15.889 11.4024 16.0333 11.5467C16.1778 11.6911 16.25 11.87 16.25 12.0833V15.4967C16.25 15.7101 16.1778 15.889 16.0333 16.0333C15.889 16.1778 15.7101 16.25 15.4967 16.25H14.0865ZM9.29479 16.25C9.08146 16.25 8.90257 16.1778 8.75813 16.0333C8.61382 15.889 8.54167 15.7101 8.54167 15.4967V4.50333C8.54167 4.28986 8.61382 4.11097 8.75813 3.96667C8.90257 3.82222 9.08146 3.75 9.29479 3.75H10.7052C10.9185 3.75 11.0974 3.82222 11.2419 3.96667C11.3862 4.11097 11.4583 4.28986 11.4583 4.50333V15.4967C11.4583 15.7101 11.3862 15.889 11.2419 16.0333C11.0974 16.1778 10.9185 16.25 10.7052 16.25H9.29479ZM4.50333 16.25C4.28986 16.25 4.11097 16.1778 3.96667 16.0333C3.82222 15.889 3.75 15.7101 3.75 15.4967V8.59354C3.75 8.37632 3.82222 8.19583 3.96667 8.05208C4.11097 7.90847 4.28986 7.83667 4.50333 7.83667H5.91354C6.12688 7.83667 6.30576 7.90882 6.45021 8.05312C6.59451 8.19743 6.66667 8.37632 6.66667 8.58979V15.4929C6.66667 15.7103 6.59451 15.8908 6.45021 16.0344C6.30576 16.1781 6.12688 16.25 5.91354 16.25H4.50333Z" fill="currentColor"/>
</svg>
