<svg width="60" height="60" viewBox="0 0 60 60" fill="none" xmlns="http://www.w3.org/2000/svg">
<path d="M11.25 47.5V25.3844C11.25 24.669 11.41 23.9913 11.73 23.3513C12.0504 22.7108 12.4929 22.1835 13.0575 21.7694L27.2887 11.0481C28.0783 10.4456 28.9808 10.1444 29.9963 10.1444C31.0117 10.1444 31.9167 10.4456 32.7113 11.0481L46.9425 21.7694C47.5071 22.1835 47.9496 22.7108 48.27 23.3513C48.59 23.9913 48.75 24.669 48.75 25.3844V47.5C48.75 48.5225 48.3806 49.4031 47.6419 50.1419C46.9031 50.8806 46.0225 51.25 45 51.25H37.0194C36.379 51.25 35.8423 51.0333 35.4094 50.6C34.976 50.1671 34.7594 49.6304 34.7594 48.99V36.7788C34.7594 36.1388 34.5429 35.6021 34.11 35.1688C33.6771 34.7358 33.1404 34.5194 32.5 34.5194H27.5C26.8596 34.5194 26.3229 34.7358 25.89 35.1688C25.4571 35.6021 25.2406 36.1388 25.2406 36.7788V48.99C25.2406 49.6304 25.024 50.1671 24.5906 50.6C24.1577 51.0333 23.621 51.25 22.9806 51.25H15C13.9775 51.25 13.0969 50.8806 12.3581 50.1419C11.6194 49.4031 11.25 48.5225 11.25 47.5Z" fill="#5978FF"/>
</svg>
