<svg width="60" height="60" viewBox="0 0 60 60" fill="none" xmlns="http://www.w3.org/2000/svg">
<path d="M42.2594 48.75C41.6194 48.75 41.0827 48.5333 40.6494 48.1C40.2165 47.6671 40 47.1304 40 46.49V36.25C40 35.61 40.2165 35.0733 40.6494 34.64C41.0827 34.2071 41.6194 33.9906 42.2594 33.9906H46.49C47.1304 33.9906 47.6671 34.2071 48.1 34.64C48.5333 35.0733 48.75 35.61 48.75 36.25V46.49C48.75 47.1304 48.5333 47.6671 48.1 48.1C47.6671 48.5333 47.1304 48.75 46.49 48.75H42.2594ZM27.8844 48.75C27.2444 48.75 26.7077 48.5333 26.2744 48.1C25.8415 47.6671 25.625 47.1304 25.625 46.49V13.51C25.625 12.8696 25.8415 12.3329 26.2744 11.9C26.7077 11.4667 27.2444 11.25 27.8844 11.25H32.1156C32.7556 11.25 33.2923 11.4667 33.7256 11.9C34.1585 12.3329 34.375 12.8696 34.375 13.51V46.49C34.375 47.1304 34.1585 47.6671 33.7256 48.1C33.2923 48.5333 32.7556 48.75 32.1156 48.75H27.8844ZM13.51 48.75C12.8696 48.75 12.3329 48.5333 11.9 48.1C11.4667 47.6671 11.25 47.1304 11.25 46.49V25.7806C11.25 25.129 11.4667 24.5875 11.9 24.1562C12.3329 23.7254 12.8696 23.51 13.51 23.51H17.7406C18.3806 23.51 18.9173 23.7265 19.3506 24.1594C19.7835 24.5923 20 25.129 20 25.7694V46.4788C20 47.1308 19.7835 47.6723 19.3506 48.1031C18.9173 48.5344 18.3806 48.75 17.7406 48.75H13.51Z" fill="currentColor"/>
</svg>
