<svg width="60" height="60" viewBox="0 0 60 60" fill="none" xmlns="http://www.w3.org/2000/svg">
<path d="M16.5 43.769C16.075 43.769 15.7188 43.6253 15.4315 43.338C15.1438 43.0503 15 42.6938 15 42.2685C15 41.8435 15.1438 41.4873 15.4315 41.2C15.7188 40.913 16.075 40.7695 16.5 40.7695H18.6155V25.846C18.6155 23.1563 19.4457 20.7782 21.106 18.7115C22.766 16.6448 24.8973 15.323 27.5 14.746V13.5C27.5 12.8057 27.7428 12.2153 28.2285 11.729C28.7142 11.243 29.3038 11 29.9975 11C30.6915 11 31.282 11.243 31.769 11.729C32.2563 12.2153 32.5 12.8057 32.5 13.5V14.746C35.1027 15.323 37.234 16.6448 38.894 18.7115C40.5543 20.7782 41.3845 23.1563 41.3845 25.846V40.7695H43.5C43.925 40.7695 44.2812 40.9132 44.5685 41.2005C44.8562 41.4882 45 41.8447 45 42.27C45 42.695 44.8562 43.0512 44.5685 43.3385C44.2812 43.6255 43.925 43.769 43.5 43.769H16.5ZM29.9965 49.3845C29.0015 49.3845 28.1508 49.0305 27.4445 48.3225C26.7378 47.6145 26.3845 46.7633 26.3845 45.769H33.6155C33.6155 46.7667 33.2612 47.6187 32.5525 48.325C31.8438 49.0313 30.9918 49.3845 29.9965 49.3845Z" fill="#D7DBDD"/>
<circle cx="51" cy="9" r="3" fill="#5978FF"/>
</svg>
