<svg width="37" height="37" viewBox="0 0 37 37" fill="none" xmlns="http://www.w3.org/2000/svg">
<path d="M11.839 1.31054C12.5655 0.58675 13.7412 0.588947 14.465 1.31545L34.8085 21.7351C35.7357 22.6658 35.4298 24.2385 34.2213 24.7537L28.2292 27.3086C27.7906 27.4956 27.4407 27.8441 27.2521 28.282L24.6749 34.2646C24.1551 35.4711 22.5812 35.7712 21.654 34.8405L1.31054 14.4209C0.586743 13.6944 0.588939 12.5187 1.31544 11.7949L6.57724 6.55271L11.839 1.31054Z" fill="#5978FF"/>
<path d="M20.4141 12.6794C21.0343 12.5853 21.5674 13.1204 21.4709 13.7402L21.2503 15.1575C21.2027 15.4628 21.3102 15.7717 21.5369 15.9816L22.5895 16.956C23.0497 17.3822 22.9637 18.1326 22.419 18.4436L21.1734 19.1548C20.905 19.308 20.7305 19.5846 20.7078 19.8927L20.6022 21.3232C20.556 21.9487 19.9156 22.3494 19.3329 22.1174L18.0002 21.5869C17.7131 21.4727 17.3881 21.5087 17.133 21.683L15.9487 22.4923C15.4309 22.8462 14.7183 22.5954 14.5364 21.9952L14.1202 20.6225C14.0306 20.3268 13.7997 20.0951 13.5044 20.0044L12.1333 19.5831C11.5337 19.3989 11.2856 18.6854 11.6414 18.1689L12.4551 16.9877C12.6304 16.7332 12.6676 16.4083 12.5545 16.1208L12.0289 14.7862C11.7991 14.2025 12.2022 13.5637 12.8279 13.5198L14.2588 13.4196C14.567 13.398 14.8443 13.2245 14.9985 12.9568L15.7143 11.7137C16.0273 11.1702 16.7781 11.087 17.2025 11.5489L18.173 12.6051C18.382 12.8326 18.6906 12.9412 18.996 12.8948L20.4141 12.6794Z" fill="#FFF872"/>
<circle cx="17.0614" cy="17.0762" r="1.85686" transform="rotate(45.107 17.0614 17.0762)" fill="#F1E943"/>
<circle cx="17.0614" cy="17.0763" r="1.39264" transform="rotate(45.107 17.0614 17.0763)" fill="#5978FF"/>
</svg>
